<svg width="60" height="84" viewBox="0 0 60 84" fill="none" xmlns="http://www.w3.org/2000/svg">
<path d="M30.2721 0.0449219C14.0649 0.0449219 0.879883 13.2467 0.879883 29.4744C0.879883 45.1724 27.7513 80.938 28.896 82.4545C29.2176 82.8874 29.7328 83.14 30.2723 83.14C30.8117 83.14 31.327 82.8874 31.6486 82.4545C32.7931 80.938 59.6647 45.1726 59.6647 29.4744C59.6644 13.2467 46.4793 0.0449219 30.2721 0.0449219ZM30.2721 45.0547C21.693 45.0547 14.7115 38.0643 14.7115 29.4744C14.7115 20.8844 21.693 13.8941 30.2721 13.8941C38.8512 13.8941 45.8327 20.8844 45.8327 29.4744C45.8327 38.0643 38.8512 45.0547 30.2721 45.0547Z" fill="#EB5757"/>
</svg>
