<svg width="34" height="47" viewBox="0 0 34 47" fill="none" xmlns="http://www.w3.org/2000/svg">
<path d="M17.0377 0C7.98217 0 0.615234 7.36783 0.615234 16.4244C0.615234 25.1854 15.6292 45.1461 16.2688 45.9924C16.4485 46.234 16.7364 46.375 17.0378 46.375C17.3392 46.375 17.6271 46.234 17.8068 45.9924C18.4463 45.1461 33.4603 25.1855 33.4603 16.4244C33.4602 7.36783 26.0932 0 17.0377 0ZM17.0377 25.1198C12.2443 25.1198 8.34343 21.2185 8.34343 16.4244C8.34343 11.6304 12.2443 7.72914 17.0377 7.72914C21.8311 7.72914 25.732 11.6304 25.732 16.4244C25.732 21.2185 21.8311 25.1198 17.0377 25.1198Z" fill="#EB5757"/>
</svg>
